#!OML:ASF E:\emotionWalksFemale\Project 1\Capture day 1\Session 1\Female1.ASF
:FULLY-SPECIFIED
:DEGREES
251
root 8.23776 15.1172 42.1401 -179.256 -9.58674 -180.551
lowerback 3.74335 1.83991 -0.906194
upperback 0.0481661 2.38425 -0.718647
thorax -2.05391 1.18924 -0.359621
lowerneck 2.15885 -2.6793 -8.30151
upperneck -6.52159 -3.50657 10.5126
head -1.92719 -1.93043 4.60643
rclavicle -1.85802e-014 1.19271e-015
rhumerus -38.1915 16.1621 -96.3975
rradius 34.4002
rwrist 15.5732
rhand -5.74484 -52.9983
rfingers 7.12502
rthumb 20.0776 -81.9809
lclavicle -1.85802e-014 1.19271e-015
lhumerus -38.6007 -12.8574 93.7551
lradius 37.7003
lwrist -12.8696
lhand -2.17602 -36.9196
lfingers 7.12502
lthumb 23.5046 -8.33554
rfemur -7.95305 7.99229 22.2948
rtibia 31.2983
rfoot -26.8053 -30.0697
rtoes 13.0488
lfemur -10.2045 -22.261 -26.639
ltibia 29.1424
lfoot -24.1284 11.2413
ltoes -23.0263
252
root 8.23242 15.118 42.1374 -179.258 -9.39666 -180.387
lowerback 3.92358 1.81933 -0.83731
upperback -0.0331249 2.36106 -0.61818
thorax -2.23983 1.17866 -0.302113
lowerneck 2.04418 -3.0012 -8.6309
upperneck -6.34158 -3.94316 10.7718
head -1.8 -2.14303 4.73875
rclavicle -1.73005e-014 5.56597e-015
rhumerus -38.2296 16.3028 -96.3632
rradius 34.3764
rwrist 15.4631
rhand -6.02503 -52.8778
rfingers 7.12502
rthumb 19.8083 -81.8884
lclavicle -1.73005e-014 5.56597e-015
lhumerus -38.642 -12.8586 93.8409
lradius 37.6959
lwrist -12.8881
lhand -1.61582 -36.344
lfingers 7.12502
lthumb 24.0418 -7.82991
rfemur -7.96252 8.08073 22.448
rtibia 31.2358
rfoot -26.6058 -29.9269
rtoes 13.1809
lfemur -10.2377 -22.1982 -26.4794
ltibia 29.1807
lfoot -24.1152 11.4234
ltoes -22.3724
253
root 8.22681 15.118 42.1318 -179.288 -9.17299 -180.258
lowerback 3.78429 1.81919 -0.728844
upperback 0.0504496 2.36938 -0.571224
thorax -2.07347 1.18179 -0.308251
lowerneck 1.88978 -3.25776 -8.9819
upperneck -6.14414 -4.28892 11.137
head -1.66455 -2.31306 4.9039
rclavicle -8.64713e-015 6.75868e-015
rhumerus -38.0192 16.3184 -96.2604
rradius 34.2982
rwrist 15.407
rhand -6.119 -52.6923
rfingers 7.12502
rthumb 19.718 -81.7122
lclavicle -8.64713e-015 6.75868e-015
lhumerus -38.5644 -13.0413 93.8864
lradius 37.718
lwrist -13.1506
lhand -1.65547 -35.8004
lfingers 7.12502
lthumb 24.0038 -7.2812
rfemur -7.9574 8.18656 22.5647
rtibia 31.217
rfoot -26.5217 -30.0248
rtoes 12.1331
lfemur -10.2144 -21.9169 -26.3649
ltibia 29.199
lfoot -24.0472 11.4896
ltoes -22.1635
254
root 8.22155 15.1194 42.1276 -179.34 -8.95721 -180.332
lowerback 3.77496 1.82602 -0.871558
upperback 0.0894598 2.37227 -0.553466
thorax -2.03476 1.18425 -0.209337
lowerneck 1.89669 -3.4558 -9.27726
upperneck -6.01257 -4.56325 11.3783
head -1.58507 -2.44822 5.02533
rclavicle 4.30804e-014 -3.37934e-015
rhumerus -37.9233 16.3013 -96.1535
rradius 34.2169
rwrist 15.4921
rhand -6.18656 -52.4874
rfingers 7.12502
rthumb 19.653 -81.514
lclavicle 4.30804e-014 -3.37934e-015
lhumerus -38.485 -12.7745 93.8326
lradius 37.6352
lwrist -13.7239
lhand -1.48866 -35.6851
lfingers 7.12502
lthumb 24.1638 -7.18716
rfemur -7.918 8.31692 22.464
rtibia 31.2261
rfoot -26.4601 -30.1313
rtoes 11.5537
lfemur -10.0724 -22.04 -26.5305
ltibia 29.1935
lfoot -24.139 11.7842
ltoes -22.5903
255
root 8.21532 15.1139 42.1264 -179.657 -8.91879 -180.423
lowerback 4.11114 1.78507 -0.946929
upperback 0.167487 2.3067 -0.570256
thorax -2.14503 1.1507 -0.190688
lowerneck 2.19622 -3.65092 -9.47087
upperneck -6.21647 -4.83768 11.5945
head -1.65405 -2.59741 5.13576
rclavicle 2.09345e-015 0
rhumerus -37.868 16.276 -96.0976
rradius 34.1812
rwrist 15.49
rhand -6.12962 -52.5471
rfingers 7.12502
rthumb 19.7078 -81.5681
lclavicle 2.09345e-015 0
lhumerus -38.3578 -12.3277 93.6247
lradius 37.6382
lwrist -13.7174
lhand 0.138934 -35.5832
lfingers 7.12502
lthumb 25.7234 -7.30163
rfemur -7.58694 8.32562 22.3912
rtibia 31.2848
rfoot -26.3863 -29.9987
rtoes 11.8006
lfemur -9.6226 -22.2619 -26.8319
ltibia 29.1576
lfoot -24.2612 12.0408
ltoes -23.3871
256
root 8.21056 15.1147 42.1257 -179.554 -8.31461 -180.414
lowerback 4.04119 1.93543 -0.994306
upperback 0.0824204 2.50673 -0.56963
thorax -2.19626 1.25192 -0.174954
lowerneck 2.58106 -3.87344 -9.53599
upperneck -6.43323 -5.1535 11.6543
head -1.74362 -2.76647 5.18003
rclavicle -3.41723e-014 1.49089e-014
rhumerus -37.9209 16.1748 -96.0607
rradius 34.2656
rwrist 15.3484
rhand -5.97399 -52.6905
rfingers 7.12502
rthumb 19.8574 -81.6961
lclavicle -3.41723e-014 1.49089e-014
lhumerus -38.4776 -12.374 93.6543
lradius 37.4677
lwrist -14.3694
lhand -1.21774 -35.9301
lfingers 7.12502
lthumb 24.4235 -7.46687
rfemur -7.85893 8.51062 22.3034
rtibia 31.3971
rfoot -25.8679 -29.6328
rtoes 10.5317
lfemur -9.68468 -21.8468 -26.8136
ltibia 29.1051
lfoot -24.3066 12.2087
ltoes -21.8488
257
root 8.20213 15.113 42.1193 -179.607 -8.61811 -180.475
lowerback 4.06543 1.78087 -1.05189
upperback 0.0614789 2.29819 -0.553244
thorax -2.23317 1.14886 -0.114866
lowerneck 2.82785 -4.05346 -9.53391
upperneck -6.46615 -5.412 11.5132
head -1.77086 -2.89419 5.144
rclavicle 1.98723e-014 -2.5842e-015
rhumerus -38.0587 16.1373 -96.0173
rradius 34.3819
rwrist 15.1881
rhand -6.34499 -52.5759
rfingers 7.12502
rthumb 19.5007 -81.618
lclavicle 1.98723e-014 -2.5842e-015
lhumerus -38.5029 -12.2322 93.6466
lradius 37.4083
lwrist -14.2775
lhand -1.10257 -36.0592
lfingers 7.12502
lthumb 24.5339 -7.61089
rfemur -7.71749 8.23178 22.247
rtibia 31.4424
rfoot -26.0175 -29.5959
rtoes 10.2026
lfemur -9.61147 -21.7824 -26.9062
ltibia 29.1173
lfoot -24.2064 11.8965
ltoes -21.687
258
root 8.19657 15.1124 42.1215 -179.515 -7.89108 -180.507
lowerback 4.07349 1.96472 -1.13685
upperback -0.0037557 2.53973 -0.53751
thorax -2.31082 1.27104 -0.0677629
lowerneck 2.91264 -4.18256 -9.57738
upperneck -6.44905 -5.59455 11.4373
head -1.76156 -2.98171 5.13002
rclavicle -2.3059e-014 -9.93923e-015
rhumerus -38.0889 16.0759 -95.9451
rradius 34.3909
rwrist 15.1999
rhand -6.76563 -52.7133
rfingers 7.12502
rthumb 19.0962 -81.7958
lclavicle -2.3059e-014 -9.93923e-015
lhumerus -38.431 -12.159 93.6249
lradius 37.2898
lwrist -14.151
lhand -0.836569 -36.1864
lfingers 7.12502
lthumb 24.7888 -7.77299
rfemur -7.97047 8.4018 22.0879
rtibia 31.469
rfoot -25.8354 -29.1898
rtoes 10.3638
lfemur -9.70133 -21.5854 -26.9679
ltibia 29.1645
lfoot -24.3116 12.3543
ltoes -21.7484
259
root 8.19206 15.1135 42.1144 -179.504 -8.27379 -180.349
lowerback 3.88667 1.75762 -0.974963
upperback 0.0664121 2.27733 -0.465598
thorax -2.1283 1.13875 -0.0606064
lowerneck 2.90327 -4.30468 -9.69022
upperneck -6.46503 -5.76085 11.5034
head -1.74117 -3.06417 5.16913
rclavicle -4.34407e-014 -4.67144e-015
rhumerus -37.9525 15.8639 -95.7626
rradius 34.379
rwrist 15.4532
rhand -6.58856 -53.1976
rfingers 7.12502
rthumb 19.2665 -82.2632
lclavicle -4.34407e-014 -4.67144e-015
lhumerus -38.3131 -12.2745 93.6751
lradius 37.1314
lwrist -14.2568
lhand -1.4772 -36.2953
lfingers 7.12502
lthumb 24.1747 -7.79875
rfemur -7.89013 8.37699 22.3201
rtibia 31.4754
rfoot -26.249 -29.6138
rtoes 11.22
lfemur -9.74449 -21.7754 -26.7707
ltibia 29.1858
lfoot -24.2872 12.1925
ltoes -21.8006
260
root 8.18524 15.1131 42.1127 -179.547 -8.06247 -180.274
lowerback 3.83648 1.74387 -0.920137
upperback 0.141559 2.26375 -0.40541
thorax -2.02319 1.13123 -0.0255225
lowerneck 2.98191 -4.3956 -9.79298
upperneck -6.60264 -5.88604 11.5699
head -1.77548 -3.13012 5.21215
rclavicle 3.14949e-015 -6.06293e-015
rhumerus -37.8314 15.6982 -95.5437
rradius 34.4519
rwrist 15.5887
rhand -6.17742 -53.3923
rfingers 7.12502
rthumb 19.6618 -82.418
lclavicle 3.14949e-015 -6.06293e-015
lhumerus -38.2492 -12.2465 93.7151
lradius 37.1155
lwrist -14.3329
lhand -1.79313 -36.417
lfingers 7.12502
lthumb 23.8718 -7.88048
rfemur -7.90348 8.47585 22.3751
rtibia 31.5273
rfoot -26.1443 -29.6899
rtoes 10.3787
lfemur -9.69012 -21.6906 -26.7445
ltibia 29.2032
lfoot -24.3626 12.3237
ltoes -21.7045
261
root 8.17787 15.1148 42.1094 -179.53 -7.92209 -180.378
lowerback 3.80823 1.73028 -1.04515
upperback 0.145361 2.24022 -0.408998
thorax -2.00797 1.12046 0.0429716
lowerneck 3.09414 -4.44848 -9.92311
upperneck -6.66086 -5.96482 11.6861
head -1.79432 -3.17349 5.27411
rclavicle -3.27187e-014 4.67144e-015
rhumerus -37.8235 15.6114 -95.4463
rradius 34.5006
rwrist 15.5729
rhand -5.96263 -53.433
rfingers 7.12502
rthumb 19.8683 -82.4375
lclavicle -3.27187e-014 4.67144e-015
lhumerus -38.3572 -12.2751 93.7341
lradius 37.3163
lwrist -13.9281
lhand -1.07265 -36.3352
lfingers 7.12502
lthumb 24.5626 -7.89086
rfemur -7.93848 8.47976 22.2317
rtibia 31.578
rfoot -26.0875 -29.6252
rtoes 9.67699
lfemur -9.68041 -21.551 -26.8905
ltibia 29.2217
lfoot -24.3913 12.3942
ltoes -22.2642
262
root 8.16597 15.1126 42.1121 -179.536 -7.46324 -180.419
lowerback 3.91744 1.83306 -0.978686
upperback 0.111956 2.37718 -0.450688
thorax -2.10026 1.18814 -0.0490762
lowerneck 3.0999 -4.5014 -9.94978
upperneck -6.58471 -6.03951 11.7371
head -1.76202 -3.21103 5.29246
rclavicle 5.44794e-015 -1.2921e-015
rhumerus -37.7604 15.3862 -95.3473
rradius 34.4131
rwrist 15.7399
rhand -5.98296 -53.4277
rfingers 7.12502
rthumb 19.8487 -82.4341
lclavicle 5.44794e-015 -1.2921e-015
lhumerus -38.4589 -12.5407 93.8303
lradius 37.4644
lwrist -13.4128
lhand -0.778422 -36.1302
lfingers 7.12502
lthumb 24.8446 -7.7244
rfemur -8.10601 8.52314 22.07
rtibia 31.7039
rfoot -25.8913 -29.2854
rtoes 8.94838
lfemur -9.63216 -21.3988 -27.0165
ltibia 29.1883
lfoot -24.4089 12.7043
ltoes -22.9841
